<svg id="Layer_2" data-name="Layer 2" xmlns="http://www.w3.org/2000/svg" xmlns:xlink="http://www.w3.org/1999/xlink" viewBox="0 0 1200 656"><defs><style>.cls-1{fill:#202121;}.cls-2{fill:#353838;}.cls-10,.cls-3{opacity:0.2;}.cls-14,.cls-17,.cls-19,.cls-28,.cls-29,.cls-3,.cls-30{isolation:isolate;}.cls-19,.cls-4{fill:#fff;}.cls-5{fill:#e1e1e1;}.cls-6{fill:url(#linear-gradient);}.cls-7{fill:#f4ae00;}.cls-8{fill:#d88f1a;}.cls-9{fill:#003948;}.cls-11{fill:#ffd400;}.cls-12{fill:#182632;}.cls-13{fill:#dc3645;}.cls-14,.cls-29{opacity:0.8;}.cls-14{fill:url(#linear-gradient-2);}.cls-15{fill:#bbb;}.cls-16{fill:#384444;}.cls-17{fill:#436867;opacity:0.57;}.cls-18{fill:#f1bc03;}.cls-19{opacity:0.5;}.cls-20{fill:#f68e37;}.cls-21{fill:#faf8a8;}.cls-22{fill:#ffd04d;}.cls-23{fill:#ffd469;}.cls-24{fill:#fcc53a;}.cls-25{fill:#3c3c71;}.cls-26{fill:#eaba42;}.cls-27{fill:#4f4f4f;}.cls-28{opacity:0.1;}.cls-29{fill:url(#linear-gradient-3);}.cls-30{opacity:0.11;}</style><linearGradient id="linear-gradient" x1="176.65" y1="108.47" x2="176.65" y2="288.12" gradientTransform="matrix(1, 0, 0, -1, 0, 655.2)" gradientUnits="userSpaceOnUse"><stop offset="0" stop-color="#fff"/><stop offset="0.22" stop-color="#fff" stop-opacity="0.76"/><stop offset="0.6" stop-color="#fff" stop-opacity="0.36"/><stop offset="0.87" stop-color="#fff" stop-opacity="0.1"/><stop offset="1" stop-color="#fff" stop-opacity="0"/></linearGradient><linearGradient id="linear-gradient-2" x1="601.11" y1="1649.44" x2="601.11" y2="-74.33" xlink:href="#linear-gradient"/><linearGradient id="linear-gradient-3" x1="1049.26" y1="99.84" x2="1080.83" y2="99.84" gradientTransform="matrix(1, 0, 0, 1, 0, 0)" xlink:href="#linear-gradient"/></defs><rect class="cls-1" width="1200" height="656"/><rect class="cls-2" y="441.26" width="1200" height="214.74"/><ellipse class="cls-3" cx="176.65" cy="592.71" rx="67.26" ry="10.06"/><path class="cls-4" d="M233.07,507.16a28.52,28.52,0,1,0-8.67,55.65l.88,0a28.52,28.52,0,0,0,7.79-55.63Zm-.25,41.29a16.54,16.54,0,1,1,8-14.25A16.55,16.55,0,0,1,232.82,548.45Z"/><path class="cls-5" d="M224.34,550.84a16.48,16.48,0,0,0,8.48-2.39c-1.43,5.89-3.8,11-7.54,14.34l-.88,0a28.52,28.52,0,1,1,8.67-55.65c.44,3.09,1.09,8.19,1.44,14.14a16.55,16.55,0,1,0-10.17,29.54Z"/><path class="cls-4" d="M227.77,494.47l.22,40.31a51.62,51.62,0,0,1-103.23.55l-.22-40.3Z"/><path class="cls-5" d="M212,592.86l-70.61.38a7.19,7.19,0,0,1-7.21-7.14h0a7.19,7.19,0,0,1,7.14-7.21l70.6-.38a7.2,7.2,0,0,1,7.22,7.14h0A7.19,7.19,0,0,1,212,592.86Z"/><path class="cls-5" d="M217.12,566.74a51.63,51.63,0,0,1-12.94,11.81l-55.14.3a51.65,51.65,0,0,1-24.28-43.51L124.54,495l30.75-.16.06,10.76a61.44,61.44,0,0,0,61.77,61.11Z"/><path class="cls-6" d="M157.46,481s-11.85-8.57-8.39-25.36,17.28-19.26,13.33-45.43-5.93-49.87,5.43-63.7h37s-13,35.18-4.07,58.89,1.05,33.45-6.82,46.78S198,481,198,481Z"/><rect class="cls-3" x="1006.01" y="329.5" width="104.38" height="83.27"/><rect class="cls-4" x="1006.01" y="321.65" width="104.38" height="83.27"/><path class="cls-7" d="M1006,300.55v21.36h104.38V300.55ZM1020.26,316a5.14,5.14,0,0,1-5.14-5.14h0a5.14,5.14,0,1,1,10.27,0h0a5.13,5.13,0,0,1-5.13,5.14Zm75.89,0a5.14,5.14,0,0,1-5.14-5.14h0a5.14,5.14,0,1,1,10.27,0h0a5.14,5.14,0,0,1-5.13,5.14Z"/><path class="cls-8" d="M1110.39,310.83v11.08H1006V310.83h9.1a5.14,5.14,0,0,0,10.28,0H1091a5.14,5.14,0,0,0,10.27,0h9.11Z"/><path class="cls-4" d="M1018,289h4.59a1,1,0,0,1,1,1v20.7a.16.16,0,0,1-.15.16h-6.29a.16.16,0,0,1-.15-.16h0V290A1,1,0,0,1,1018,289Z"/><path class="cls-4" d="M1093.85,289h4.59a1,1,0,0,1,1,1v20.7a.16.16,0,0,1-.15.16H1093a.16.16,0,0,1-.15-.16h0V290a1,1,0,0,1,1-1Z"/><path class="cls-9" d="M1035.48,342.52c6.07,0,7.42-2.93,8.64-6.28h5.28v50h-7.85V348.09h-6.07v-5.57Z"/><path class="cls-9" d="M1070.39,342.8c-2.5,0-4.07,1.36-4.07,4.93v5.35h-7.43v-4.85c0-8,4-12.56,11.71-12.56s11.71,4.56,11.71,12.56c0,15.71-15.64,21.56-15.64,29.77a5.45,5.45,0,0,0,.08,1.07h14.84v7.14h-22.7v-6.14c0-14.71,15.57-17.13,15.57-31.55C1074.45,344,1072.89,342.8,1070.39,342.8Z"/><g class="cls-10"><circle cx="141.4" cy="128.29" r="71.05"/></g><circle class="cls-11" cx="141.4" cy="121.04" r="71.05"/><path class="cls-4" d="M141.4,186.5a65.46,65.46,0,1,1,65.45-65.45h0A65.52,65.52,0,0,1,141.4,186.5Z"/><rect class="cls-12" x="139.13" y="61.54" width="2.45" height="13.65"/><rect class="cls-12" x="139.13" y="166.55" width="2.45" height="13.65"/><rect class="cls-12" x="81.02" y="119.64" width="13.65" height="2.45"/><rect class="cls-12" x="186.03" y="119.64" width="13.65" height="2.45"/><rect class="cls-12" x="170.65" y="82.52" width="13.65" height="2.45" transform="translate(-7.23 150.02) rotate(-45)"/><rect class="cls-12" x="96.4" y="156.77" width="13.65" height="2.45" transform="translate(-81.48 119.27) rotate(-45)"/><rect class="cls-12" x="102" y="76.92" width="2.45" height="13.65" transform="translate(-28.98 97.52) rotate(-45)"/><rect class="cls-12" x="176.25" y="151.17" width="2.45" height="13.65" transform="translate(-59.74 171.76) rotate(-45)"/><g class="cls-10"><path d="M206.85,121c0,1.26,0,2.5-.1,3.74a65.46,65.46,0,0,0-130.7,0c-.07-1.24-.11-2.48-.11-3.74a65.46,65.46,0,0,1,130.91,0Z"/></g><rect class="cls-13" x="150.03" y="112.35" width="2.1" height="24.87" transform="translate(-20.38 219.64) rotate(-68.51)"/><polygon class="cls-12" points="141.4 121.92 103.22 121.92 103.22 119.82 139.3 119.82 139.3 90.19 141.4 90.19 141.4 121.92"/><circle class="cls-14" cx="601.11" cy="335.34" r="305.39"/><ellipse class="cls-3" cx="614.21" cy="512.32" rx="270.72" ry="19.65"/><path class="cls-12" d="M387.56,104.52H824.82a14,14,0,0,1,14,14h0V380.09H372.53V119.55a15,15,0,0,1,15-15Z"/><path class="cls-4" d="M797,421.89H414.33a41.81,41.81,0,0,1-41.8-41.8H838.84a41.8,41.8,0,0,1-41.8,41.8Z"/><rect class="cls-5" x="563.07" y="421.89" width="84.62" height="70.41"/><rect class="cls-15" x="563.07" y="421.89" width="84.62" height="22.32"/><path class="cls-4" d="M519.57,492.3H691.19a12,12,0,0,1,12,12v14.78H507.57V504.3A12,12,0,0,1,519.57,492.3Z"/><path class="cls-16" d="M399.39,124.61a7.33,7.33,0,0,0-7.3,7.31v5.24L642.31,353.5h42.84L420.4,124.61Z"/><path class="cls-16" d="M392.08,217.1V346.2a7.34,7.34,0,0,0,7.3,7.31H606l-213.94-185Z"/><path class="cls-16" d="M811.38,124.61H524.63L789.37,353.5h22a7.32,7.32,0,0,0,7.3-7.3V131.92A7.32,7.32,0,0,0,811.38,124.61Z"/><polygon class="cls-17" points="505.45 124.61 420.4 124.61 685.15 353.5 710.23 353.5 789.37 353.5 524.63 124.61 505.45 124.61"/><polygon class="cls-17" points="392.08 168.54 606.02 353.5 642.31 353.5 392.08 137.16 392.08 168.54"/><circle class="cls-15" cx="603.73" cy="399.59" r="13.19"/><rect class="cls-3" x="715.07" y="367.94" width="46.14" height="48.9" transform="translate(-5.6 10.72) rotate(-0.83)"/><rect class="cls-18" x="712.55" y="366.88" width="46.14" height="46.14" transform="translate(-5.56 10.68) rotate(-0.83)"/><rect class="cls-19" x="731.38" y="355.68" width="7.71" height="15.71" transform="translate(-5.18 10.66) rotate(-0.83)"/><polygon class="cls-3" points="833.6 635 375.88 635 436.32 539.06 773.16 539.06 833.6 635"/><polygon class="cls-5" points="818.23 605.4 390.23 605.4 431.91 539.06 776.55 539.06 818.23 605.4"/><rect class="cls-15" x="390.23" y="605.4" width="428" height="15.03"/><polygon class="cls-4" points="454.78 550.77 433.15 550.77 436.32 543.97 457.26 543.97 454.78 550.77"/><polygon class="cls-4" points="457.58 550.77 460.31 543.97 481.26 543.97 479.21 550.77 457.58 550.77"/><polygon class="cls-4" points="482.01 550.77 484.31 543.97 505.25 543.97 503.64 550.77 482.01 550.77"/><polygon class="cls-4" points="506.52 550.77 508.38 543.97 529.32 543.97 528.14 550.77 506.52 550.77"/><polygon class="cls-4" points="530.97 550.77 532.4 543.97 553.34 543.97 552.6 550.77 530.97 550.77"/><polygon class="cls-4" points="555.43 550.77 556.42 543.97 577.37 543.97 577.06 550.77 555.43 550.77"/><polygon class="cls-4" points="579.82 550.77 580.38 543.97 601.32 543.97 601.45 550.77 579.82 550.77"/><polygon class="cls-4" points="604.06 550.77 604.18 543.97 625.13 543.97 625.69 550.77 604.06 550.77"/><polygon class="cls-4" points="628.45 550.77 628.14 543.97 649.08 543.97 650.08 550.77 628.45 550.77"/><polygon class="cls-4" points="652.91 550.77 652.16 543.97 673.1 543.97 674.53 550.77 652.91 550.77"/><polygon class="cls-4" points="677.36 550.77 676.18 543.97 697.13 543.97 698.99 550.77 677.36 550.77"/><polygon class="cls-4" points="701.87 550.77 700.26 543.97 721.2 543.97 723.5 550.77 701.87 550.77"/><polygon class="cls-4" points="726.3 550.77 724.25 543.97 745.19 543.97 747.93 550.77 726.3 550.77"/><polygon class="cls-4" points="750.73 550.77 772.36 550.77 769.19 543.97 748.25 543.97 750.73 550.77"/><polygon class="cls-4" points="450.29 563.48 427.87 563.48 431.15 556.43 452.86 556.43 450.29 563.48"/><polygon class="cls-4" points="453.19 563.48 456.03 556.43 477.74 556.43 475.62 563.48 453.19 563.48"/><polygon class="cls-4" points="478.52 563.48 480.9 556.43 502.62 556.43 500.94 563.48 478.52 563.48"/><polygon class="cls-4" points="503.93 563.48 505.86 556.43 527.57 556.43 526.35 563.48 503.93 563.48"/><polygon class="cls-4" points="529.28 563.48 530.77 556.43 552.48 556.43 551.71 563.48 529.28 563.48"/><polygon class="cls-4" points="554.64 563.48 555.67 556.43 577.38 556.43 577.06 563.48 554.64 563.48"/><polygon class="cls-4" points="579.93 563.48 580.51 556.43 602.22 556.43 602.35 563.48 579.93 563.48"/><polygon class="cls-4" points="605.06 563.48 605.19 556.43 626.9 556.43 627.48 563.48 605.06 563.48"/><polygon class="cls-4" points="630.35 563.48 630.02 556.43 651.74 556.43 652.77 563.48 630.35 563.48"/><polygon class="cls-4" points="655.7 563.48 654.93 556.43 676.64 556.43 678.12 563.48 655.7 563.48"/><polygon class="cls-4" points="681.05 563.48 679.83 556.43 701.54 556.43 703.48 563.48 681.05 563.48"/><polygon class="cls-4" points="706.46 563.48 704.79 556.43 726.5 556.43 728.89 563.48 706.46 563.48"/><polygon class="cls-4" points="731.79 563.48 729.67 556.43 751.38 556.43 754.22 563.48 731.79 563.48"/><polygon class="cls-4" points="757.12 563.48 779.54 563.48 776.26 556.43 754.54 556.43 757.12 563.48"/><polygon class="cls-4" points="446.26 575.97 423.17 575.97 426.55 568.71 448.91 568.71 446.26 575.97"/><polygon class="cls-4" points="449.25 575.97 452.17 568.71 474.54 568.71 472.35 575.97 449.25 575.97"/><polygon class="cls-4" points="475.34 575.97 477.8 568.71 500.16 568.71 498.44 575.97 475.34 575.97"/><polygon class="cls-4" points="501.51 575.97 503.5 568.71 525.86 568.71 524.61 575.97 501.51 575.97"/><polygon class="cls-4" points="527.63 575.97 529.15 568.71 551.51 568.71 550.72 575.97 527.63 575.97"/><polygon class="cls-4" points="553.74 575.97 554.8 568.71 577.16 568.71 576.84 575.97 553.74 575.97"/><polygon class="cls-4" points="579.79 575.97 580.38 568.71 602.75 568.71 602.88 575.97 579.79 575.97"/><polygon class="cls-4" points="605.67 575.97 605.8 568.71 628.17 568.71 628.76 575.97 605.67 575.97"/><polygon class="cls-4" points="631.72 575.97 631.39 568.71 653.75 568.71 654.81 575.97 631.72 575.97"/><polygon class="cls-4" points="657.83 575.97 657.04 568.71 679.4 568.71 680.93 575.97 657.83 575.97"/><polygon class="cls-4" points="683.95 575.97 682.69 568.71 705.05 568.71 707.04 575.97 683.95 575.97"/><polygon class="cls-4" points="710.12 575.97 708.39 568.71 730.76 568.71 733.21 575.97 710.12 575.97"/><polygon class="cls-4" points="736.2 575.97 734.01 568.71 756.38 568.71 759.3 575.97 736.2 575.97"/><polygon class="cls-4" points="762.29 575.97 785.38 575.97 782 568.71 759.64 568.71 762.29 575.97"/><polygon class="cls-4" points="440.66 588.71 416.76 588.71 420.26 581.19 443.4 581.19 440.66 588.71"/><polygon class="cls-4" points="443.75 588.71 446.77 581.19 469.92 581.19 467.65 588.71 443.75 588.71"/><polygon class="cls-4" points="470.75 588.71 473.29 581.19 496.43 581.19 494.65 588.71 470.75 588.71"/><polygon class="cls-4" points="497.83 588.71 499.89 581.19 523.03 581.19 521.73 588.71 497.83 588.71"/><polygon class="cls-4" points="524.85 588.71 526.43 581.19 549.57 581.19 548.75 588.71 524.85 588.71"/><polygon class="cls-4" points="655.36 581.19 632.22 581.19 628.89 581.19 605.75 581.19 602.59 581.19 579.45 581.19 552.98 581.19 551.87 588.71 578.83 588.71 602.73 588.71 605.61 588.71 629.51 588.71 632.56 588.71 656.46 588.71 655.36 581.19"/><polygon class="cls-4" points="659.59 588.71 658.76 581.19 681.91 581.19 683.49 588.71 659.59 588.71"/><polygon class="cls-4" points="686.61 588.71 685.31 581.19 708.45 581.19 710.51 588.71 686.61 588.71"/><polygon class="cls-4" points="713.69 588.71 711.91 581.19 735.05 581.19 737.59 588.71 713.69 588.71"/><polygon class="cls-4" points="740.68 588.71 738.42 581.19 761.56 581.19 764.59 588.71 740.68 588.71"/><polygon class="cls-4" points="767.68 588.71 791.58 588.71 788.08 581.19 764.94 581.19 767.68 588.71"/><ellipse class="cls-3" cx="896.96" cy="587.92" rx="28.2" ry="44.63" transform="translate(-60.67 1070.75) rotate(-60)"/><path class="cls-4" d="M935.16,598h0a5.48,5.48,0,0,1-.68,1.79h0c-8.08,13.09-51.21,5.61-56-6-.41-1-.83-1.94-1.22-2.8-6-12.86-9.79-9.28-20.3-18a9,9,0,0,1-1.22-1.17s-.1-.09-.14-.15c-5.92-6.73,1.36-15.33,1.36-15.33.44-.35.89-.68,1.33-1h0a34,34,0,0,1,10.87-5.3,30.92,30.92,0,0,1,5.14-1C905,545.6,938,584.71,935.16,598Z"/><path class="cls-5" d="M934.45,599.81c-8.08,13.09-51.22,5.61-56-6-.41-1-.83-1.93-1.22-2.8-6-12.8-10.12-8.91-20.3-18q-.66-.59-1.23-1.17s-.09-.09-.13-.15c-5.92-6.73,1.36-15.33,1.36-15.33.44-.35.89-.68,1.33-1-.86,2.49-1.68,8.11,5.14,13.57a23.28,23.28,0,0,0,5.31,3.08c1.49.65,4.49,2.92,9.84,10.39,8.57,11.93,7.4,13.45,26.4,18.65C923.52,606.19,934,600.08,934.45,599.81Z"/><path class="cls-5" d="M888,559.56c-11-9.13-18.85-9.47-18.85-9.47a30.92,30.92,0,0,1,5.14-1A27.63,27.63,0,0,1,888,559.56Z"/><path class="cls-4" d="M327.32,162.49c-18.46,1.89-20,3.42-21.87,21.87-1.88-18.45-3.41-20-21.86-21.87,18.45-1.88,20-3.41,21.86-21.86C307.34,159.08,308.86,160.61,327.32,162.49Z"/><path class="cls-4" d="M906.79,412.55c-18.45,1.88-20,3.41-21.86,21.86-1.89-18.45-3.41-20-21.86-21.86,18.45-1.89,20-3.41,21.86-21.86C886.81,409.14,888.34,410.66,906.79,412.55Z"/><path class="cls-20" d="M892.65,191.22c-19.75-.24-32.25-2.66-72.26,6.39a1.47,1.47,0,0,0-.27.06l.23-.15c34.17-22.69,41.06-33.4,54.53-47.85s37-15.82,37-15.82l10.43,20.06,0,.09,7.3,21.4S912.49,191.46,892.65,191.22Z"/><path class="cls-18" d="M853.7,183.3A205.73,205.73,0,0,0,875,162c2-2.2,4-4.47,6.16-6.79,7.1-7.62,24.6-13.21,31.31-14.47l6,14.08,6.19,14.48c-5.54,4-21.25,13.7-31.7,13.57-3.17,0-6.22-.14-9.16-.23A204.53,204.53,0,0,0,853.7,183.3Z"/><path class="cls-21" d="M872.79,175.14c3.47-3.25,6.61-6.36,9.71-9.42l0,0c2.37-2.35,4.83-4.78,7.4-7.23,4.83-4.61,16.3-9.41,24.88-12.18l7.54,17.62c-8.47,4.93-19.42,10.07-25.67,10.36-3.55.17-7,.27-10.35.36h0C882,174.75,877.53,174.88,872.79,175.14Z"/><path class="cls-22" d="M949.73,96.88a34.68,34.68,0,0,0-12.6-3.55c-22.7-2.39-52.34,10.52-52.34,10.52v0c-.08-.6-3.26-25.57,21.85-45.7C919.81,47.57,935.72,44.7,948,44.39a4.61,4.61,0,0,1,4.5,2.85,5,5,0,0,1,.07,3.79A4.63,4.63,0,0,1,950,53.58l33.54,3.57,25.12,2.67h0C987.35,80.68,949.73,96.88,949.73,96.88Z"/><path class="cls-23" d="M884.79,103.84c-.08-.6-3.25-25.58,21.85-45.71C919.81,47.57,935.72,44.7,948,44.39a4.61,4.61,0,0,1,4.5,2.85,5,5,0,0,1,.07,3.79c-.8.82-1.65,1.68-2.57,2.55-1.37,1.32-26.59,2.28-45.37,19.41C886.12,89.85,884.83,103.42,884.79,103.84Z"/><path class="cls-24" d="M949.73,96.88a34.68,34.68,0,0,0-12.6-3.55c12.66-16,30.91-28,46.39-36.18l25.11,2.67h0C987.35,80.68,949.73,96.88,949.73,96.88Z"/><path class="cls-22" d="M982.52,173.55a34.7,34.7,0,0,1-6.13,11.56c-13.95,18.07-43.75,30.59-43.75,30.59h0c.38.47,16.25,20,48.15,15.77,16.73-2.24,29.79-11.76,38.49-20.42a4.6,4.6,0,0,0,1.05-5.21,5,5,0,0,0-2.7-2.67,4.64,4.64,0,0,0-3.62.1l20.58-26.72,15.41-20h0C1020.22,157.53,982.52,173.55,982.52,173.55Z"/><path class="cls-23" d="M932.64,215.7c.38.48,16.25,20,48.15,15.77,16.73-2.23,29.79-11.75,38.49-20.41a4.62,4.62,0,0,0,1.05-5.22,5,5,0,0,0-2.7-2.67c-1.15,0-2.36,0-3.62.1-1.9.09-20,17.66-45.38,19.41C943.68,224.4,933,216,932.64,215.7Z"/><path class="cls-24" d="M982.52,173.55a34.7,34.7,0,0,1-6.13,11.56c20.31,1.89,41.62-3,58.2-8.56l15.41-20h0C1020.22,157.53,982.52,173.55,982.52,173.55Z"/><path class="cls-4" d="M1046.94,157.59a249,249,0,0,1-25.08,9.58,149.18,149.18,0,0,1-25.61,5.32l-1,.09-16.08.95-17.76,1.05-33.8,2-18.11-42.33,2.82-2.62,22-20.44,13-12.13a200.35,200.35,0,0,1,56.5-37.18l1.8-.78c28.81-12.32,54.62-17.25,76.31-18.31,1.55-.07,3.07-.13,4.57-.17q5.42-.12,10.45,0,2.17.06,4.26.18l2.12.13A169.42,169.42,0,0,1,1127,46.2a138.68,138.68,0,0,1,18.67,5.25A8.33,8.33,0,0,1,1150.62,63a155.73,155.73,0,0,1-23.09,36.46l-1.51,1.78c-.91,1-1.84,2.12-2.8,3.19q-3.36,3.73-7.19,7.56-1.54,1.55-3.18,3.1C1097.11,130,1075.73,145.27,1046.94,157.59Z"/><path class="cls-25" d="M945.32,175.53l-17.67,1.05c-1.28-1.61-2.49-3.24-3.65-4.89-1-1.39-1.91-2.8-2.79-4.23a81.88,81.88,0,0,1-7.69-15.77,74,74,0,0,1-4-17.45l13-12.05A116,116,0,0,0,928,144.05a112.62,112.62,0,0,0,11.71,23.57q1.21,1.86,2.5,3.68Q943.71,173.45,945.32,175.53Z"/><path class="cls-5" d="M913.52,151.69a74,74,0,0,1-4-17.45l13-12.05,11.82-11,13-12.13a200.35,200.35,0,0,1,56.5-37.18l1.8-.78c39-16.67,72.48-19.81,97.71-18.13A169.77,169.77,0,0,1,1127,46.2c-1.31,6,.81,7.66-10,14.13,0,0-70.32-8.79-119.8,22.82-45.34,29-27.9,39.08-27.9,39.08L928,144.06Z"/><path class="cls-22" d="M898.85,166.61a2.71,2.71,0,0,1-2.8-2.62,2.74,2.74,0,0,1,.81-2c33-32.18,102.19-49.87,130.68-56a2.71,2.71,0,0,1,2.1,4.89C1005.5,127.16,944.89,165,898.85,166.61Z"/><path class="cls-26" d="M1030.61,107.5,896.26,165a2.69,2.69,0,0,1,.6-3c33-32.19,102.19-49.88,130.69-56A2.63,2.63,0,0,1,1030.61,107.5Z"/><circle class="cls-25" cx="1065.98" cy="92.36" r="25.77"/><path class="cls-27" d="M1074,111.11l-.25.1a20.4,20.4,0,0,1-26.4-10.58c0-.08-.07-.17-.11-.25A20.39,20.39,0,1,1,1074,111.1Z"/><path class="cls-28" d="M1078.79,108.23A20.38,20.38,0,0,0,1058,73.63q-.78.33-1.5.72a20.38,20.38,0,0,1,16,37.35c.44-.14.88-.31,1.32-.49l.25-.1A20.82,20.82,0,0,0,1078.79,108.23Z"/><path class="cls-29" d="M1080.83,93s-4.37,10.79-14.06,12.23c-10.61,1.58-15.67-5.83-16.91-15.48,0,0-3.26,8.9,5.37,16.67C1064.23,114.55,1079.26,107.83,1080.83,93Z"/><path class="cls-22" d="M1127.53,99.44A178.1,178.1,0,0,1,1103.37,43a155.28,155.28,0,0,1,42.32,8.48,8.41,8.41,0,0,1,5.55,6,8.87,8.87,0,0,1-.62,5.49A155.23,155.23,0,0,1,1127.53,99.44Z"/><path class="cls-30" d="M1127.53,99.44A178.1,178.1,0,0,1,1103.37,43a155.28,155.28,0,0,1,42.32,8.48,8.41,8.41,0,0,1,5.55,6c-1.63-.77-13.42-6-23-1.92C1117.87,60,1114.54,77.2,1127.53,99.44Z"/></svg>